<?xml version="1.0" encoding="UTF-8" standalone="no"?>
<!-- Created with Inkscape (http://www.inkscape.org/) -->

<svg
   width="134.18483mm"
   height="134.18484mm"
   viewBox="0 0 134.18483 134.18484"
   version="1.1"
   id="svg5"
   fill="hsl(210 40% 96.1%)"
   xml:space="preserve"
   xmlns:xlink="http://www.w3.org/1999/xlink"
   xmlns="http://www.w3.org/2000/svg"
   xmlns:svg="http://www.w3.org/2000/svg"><defs
     id="defs2"><linearGradient
       id="linearGradient17173"><stop
         style="stop-color:#0096c7;stop-opacity:1;"
         offset="0"
         id="stop17169" /><stop
         style="stop-color:#00b4d8;stop-opacity:1;"
         offset="1"
         id="stop17171" /></linearGradient><linearGradient
       xlink:href="#linearGradient17173"
       id="linearGradient17175"
       x1="113.54638"
       y1="188.12302"
       x2="59.299992"
       y2="139.17984"
       gradientUnits="userSpaceOnUse" /></defs><g
     id="layer4"
     transform="translate(-35.237292,-102.56566)"
     style="display:inline"><path
       id="path15604"
       style="fill:#64748b;fill-opacity:1;fill-rule:evenodd;stroke-width:0.264583"
       d="m 107.40064,140.85049 c -5.40477,0.0212 -10.582719,1.2636 -14.125238,3.06079 -6.571625,3.33396 -7.515409,8.5776 -12.479341,12.93668 -4.963932,4.35911 -13.947378,7.83349 -18.548739,9.69502 -4.601362,1.86153 -4.820171,2.10975 -5.757271,2.48822 -0.9371,0.37847 -2.59295,0.88719 -0.757577,2.98483 1.835373,2.09763 7.161757,5.78382 13.482381,7.56129 6.320627,1.7775 13.635256,1.64625 21.055046,1.017 7.41979,-0.62926 14.944179,-1.75631 20.120219,1.68 5.17606,3.43628 8.00363,11.43569 12.3145,15.14688 4.31084,3.71116 10.10499,3.13415 15.73857,-0.18707 5.63361,-3.32124 11.10673,-9.38696 11.4515,-14.31231 0.34478,-4.92533 -4.439,-8.71015 -9.56893,-16.05225 -5.12991,-7.34209 -10.60538,-18.24074 -19.44274,-22.97844 -4.07345,-2.18379 -8.8609,-3.05873 -13.48238,-3.04064 z m -8.364349,13.18782 a 4.2336578,4.2908697 0 0 1 4.233849,4.29121 4.2336578,4.2908697 0 0 1 -4.233849,4.2907 4.2336578,4.2908697 0 0 1 -4.233333,-4.2907 4.2336578,4.2908697 0 0 1 4.233333,-4.29121 z" /><path
       style="display:inline;fill:#0096c7;fill-opacity:1;fill-rule:evenodd;stroke-width:0.264583"
       d="m 53.670639,166.85173 7.869361,0.0346 c 0.377448,0.47503 0.636683,1.04327 0.748039,1.63969 0.129638,0.69434 0.05759,1.42371 -0.195468,2.08316 -0.25306,0.65945 -0.685316,1.24769 -1.232343,1.69454 -0.547027,0.44685 -1.207017,0.75224 -1.899685,0.89053 -0.692668,0.13829 -1.416748,0.11021 -2.099477,-0.0709 -0.980804,-0.26015 -1.866443,-0.83297 -2.557896,-1.57564 -0.691453,-0.74266 -1.193545,-1.65036 -1.522407,-2.61031 -0.101358,-0.29587 -0.187517,-0.60185 -0.189601,-0.91459 -0.0021,-0.31273 0.08797,-0.63604 0.300837,-0.86516 0.196297,-0.21129 0.491017,-0.32707 0.77864,-0.3059 z"
       id="path15221" /><path
       style="display:inline;fill:#64748b;fill-opacity:1;fill-rule:evenodd;stroke-width:0.264583"
       d="m 88.35578,142.01717 -0.07865,-29.02357 20.76483,21.55138 22.65254,-21.0008 10.28468,44.39381 c 0,0 -12.34128,-14.76676 -13.05504,-15.88906 -1.45055,-2.28084 -0.76909,-14.42556 -0.76909,-14.42556 l -9.67453,9.20259 c 0,0 -17.53999,-6.7643 -30.124738,5.19121 z"
       id="path15670" /><path
       style="fill:#64748b;fill-opacity:1;fill-rule:evenodd;stroke-width:0.264583"
       d="m 109.59545,196.98659 c -2.27242,-0.71948 -7.09788,-1.82028 -12.793733,-2.41174 -5.695855,-0.59146 -12.224018,-0.78434 -17.787582,-0.0202 -5.563564,0.76411 -10.162529,2.48522 -11.999987,5.72171 -2.763971,4.86845 32.764533,25.48111 28.595156,22.21908 -11.650581,-19.61815 15.246576,-25.09841 13.986146,-25.50883 z"
       id="path17389" /></g></svg>
